<svg width="168" height="39" viewBox="0 0 168 39" fill="none" xmlns="http://www.w3.org/2000/svg">
<path d="M10.6023 15.3752L10.6145 18.1432C10.6166 18.3743 10.7306 18.5476 10.9566 18.6632L23.5444 25.0765C23.6307 25.121 23.7287 25.1444 23.8285 25.1444C23.9283 25.1444 24.0263 25.121 24.1126 25.0765L39.9901 16.9461C40.0245 16.9284 40.0637 16.9189 40.1035 16.9187C40.1433 16.9185 40.1824 16.9275 40.2168 16.9448C40.2512 16.9622 40.2797 16.9872 40.2995 17.0174C40.3192 17.0475 40.3294 17.0818 40.3292 17.1167C40.3373 20.0652 40.3322 23.0489 40.3139 26.0677C40.3118 26.6311 39.9331 27.1059 39.1776 27.4923C34.3575 29.9714 29.5334 32.4432 24.7052 34.9077C24.0087 35.2625 23.2634 35.0269 22.5395 34.664C15.3552 31.0529 10.5596 28.6244 8.15258 27.3786C7.07432 26.8207 7.29425 24.9005 7.37672 23.9119C7.37942 23.8751 7.39267 23.8395 7.41522 23.8085C7.43777 23.7775 7.46887 23.7521 7.50558 23.7348C7.54228 23.7174 7.58338 23.7087 7.62498 23.7093C7.66657 23.71 7.70729 23.7201 7.74327 23.7386L23.4803 31.7823C23.5872 31.8367 23.7083 31.8654 23.8316 31.8654C23.9548 31.8654 24.0759 31.8367 24.1828 31.7823L36.6393 25.3988C36.7312 25.352 36.8075 25.2843 36.8606 25.2025C36.9137 25.1207 36.9417 25.0277 36.9417 24.933L36.9539 22.2517C36.9539 22.0368 36.848 21.9836 36.6362 22.0919L24.25 28.424C23.9548 28.5757 23.6595 28.5757 23.3642 28.424L7.68523 20.4209C7.57662 20.365 7.48646 20.2848 7.42375 20.1883C7.36104 20.0918 7.32797 19.9824 7.32785 19.8711C7.33599 18.3562 7.34007 16.8152 7.34007 15.248C7.33701 13.9859 7.63636 13.2248 8.8429 12.6209C13.4166 10.3296 17.977 8.0158 22.5242 5.67941C23.9812 4.9292 25.4108 5.78233 26.6601 6.47566C26.8596 6.5876 26.8861 6.72483 26.7395 6.88733C26.6621 6.97038 26.5267 7.06156 26.3332 7.16087C22.3766 9.1867 18.423 11.2152 14.4724 13.2465C14.3543 13.3061 14.2596 13.3729 14.1884 13.4469C14.1782 13.4572 14.1708 13.4694 14.1666 13.4826C14.1625 13.4958 14.1617 13.5096 14.1643 13.5231C14.1669 13.5366 14.1729 13.5494 14.1818 13.5606C14.1908 13.5718 14.2024 13.581 14.2158 13.5877L17.0596 15.0313C17.1164 15.06 17.1804 15.0752 17.2452 15.0752C17.3101 15.0752 17.3736 15.06 17.4292 15.0313L29.959 8.61524C30.0956 8.5451 30.2506 8.50795 30.4087 8.50747C30.5668 8.507 30.7224 8.54322 30.8601 8.61253C33.4483 9.91615 36.0701 11.2631 38.7255 12.6534C39.033 12.8159 39.3629 13.047 39.7152 13.3467C39.7539 13.3792 39.7834 13.4192 39.8014 13.4637C39.8194 13.5082 39.8254 13.5559 39.8189 13.603C39.8124 13.65 39.7935 13.6952 39.7638 13.7349C39.7342 13.7746 39.6945 13.8076 39.648 13.8315L24.0026 21.8292C23.9398 21.8621 23.8681 21.8792 23.7949 21.8787C23.7218 21.8782 23.65 21.8602 23.5872 21.8265L20.8442 20.3694C20.6284 20.2539 20.6294 20.1392 20.8473 20.0255C25.0401 17.8768 29.2096 15.7291 33.3556 13.5823C33.4391 13.539 33.486 13.5065 33.4961 13.4848C33.5143 13.4478 33.5124 13.4044 33.4909 13.3632C33.4693 13.322 33.4298 13.2861 33.3801 13.2627L30.6462 11.9411C30.5706 11.9047 30.4859 11.886 30.4003 11.887C30.3147 11.8879 30.2311 11.9084 30.1575 11.9465L17.5025 18.4167C17.4179 18.4603 17.3216 18.4833 17.2235 18.4833C17.1253 18.4833 17.0288 18.4603 16.9436 18.4167L10.8192 15.2642C10.7973 15.2527 10.7723 15.2465 10.7468 15.2464C10.7213 15.2462 10.6962 15.2521 10.6741 15.2634C10.652 15.2747 10.6337 15.291 10.6211 15.3107C10.6085 15.3303 10.602 15.3526 10.6023 15.3752Z" fill="#024D2C"/>
</svg>
